<svg xmlns="http://www.w3.org/2000/svg" viewBox="0 0 924 924" width="924" height="924" role="img" aria-label="Indegenius logo">
<title>Indegenius logo</title>
<path d="M 833.0 578.0 L 555.0 578.0 L 555.0 610.0 L 697.0 610.0 L 703.0 613.0 L 711.0 625.0 L 711.0 642.0 L 697.0 697.0 L 681.0 730.0 L 657.0 764.0 L 630.0 791.0 L 601.0 812.0 L 567.0 829.0 L 533.0 840.0 L 498.0 846.0 L 452.0 848.0 L 475.0 856.0 L 508.0 861.0 L 557.0 863.0 L 592.0 860.0 L 647.0 846.0 L 707.0 815.0 L 757.0 771.0 L 784.0 737.0 L 802.0 707.0 L 815.0 678.0 L 827.0 638.0 Z M 302.0 565.0 L 303.0 717.0 L 308.0 733.0 L 317.0 749.0 L 329.0 765.0 L 348.0 785.0 L 369.0 802.0 L 392.0 815.0 L 426.0 820.0 L 465.0 821.0 L 501.0 818.0 L 533.0 811.0 L 556.0 802.0 L 554.0 800.0 L 514.0 791.0 L 469.0 771.0 L 422.0 742.0 L 384.0 711.0 L 358.0 682.0 L 334.0 647.0 L 318.0 614.0 L 310.0 591.0 L 304.0 564.0 Z M 305.0 400.0 L 302.0 417.0 L 302.0 530.0 L 319.0 483.0 L 339.0 445.0 L 370.0 406.0 L 404.0 377.0 L 454.0 351.0 L 495.0 340.0 L 549.0 338.0 L 579.0 343.0 L 607.0 352.0 L 642.0 370.0 L 669.0 390.0 L 697.0 419.0 L 734.0 481.0 L 746.0 518.0 L 750.0 547.0 L 832.0 547.0 L 829.0 514.0 L 817.0 470.0 L 800.0 432.0 L 767.0 382.0 L 736.0 349.0 L 694.0 316.0 L 650.0 292.0 L 607.0 277.0 L 559.0 269.0 L 511.0 269.0 L 468.0 276.0 L 426.0 290.0 L 383.0 313.0 L 343.0 344.0 L 322.0 367.0 Z M 90.0 247.0 L 90.0 252.0 L 116.0 259.0 L 145.0 279.0 L 155.0 296.0 L 161.0 320.0 L 162.0 758.0 L 159.0 788.0 L 146.0 822.0 L 127.0 841.0 L 92.0 855.0 L 89.0 860.0 L 368.0 861.0 L 368.0 856.0 L 318.0 838.0 L 295.0 818.0 L 283.0 797.0 L 276.0 765.0 L 279.0 333.0 L 289.0 304.0 L 312.0 276.0 L 339.0 260.0 L 368.0 252.0 L 368.0 247.0 Z M 225.0 60.0 L 210.0 63.0 L 200.0 67.0 L 189.0 74.0 L 177.0 86.0 L 166.0 106.0 L 163.0 120.0 L 163.0 135.0 L 166.0 148.0 L 172.0 161.0 L 184.0 176.0 L 198.0 186.0 L 210.0 191.0 L 233.0 194.0 L 255.0 189.0 L 269.0 181.0 L 280.0 171.0 L 290.0 156.0 L 294.0 146.0 L 296.0 137.0 L 296.0 117.0 L 293.0 105.0 L 288.0 94.0 L 281.0 84.0 L 273.0 76.0 L 253.0 64.0 L 241.0 61.0 Z" fill="#FFFFFF" fill-rule="evenodd"/>
</svg>