<svg xmlns="http://www.w3.org/2000/svg" viewBox="0 0 1074 830" width="1074" height="830" role="img" aria-label="Indegenius logo">
<title>Indegenius logo</title>
<path d="M 829.0 643.0 L 837.0 646.0 L 841.0 652.0 L 841.0 704.0 L 845.0 716.0 L 851.0 723.0 L 861.0 728.0 L 875.0 729.0 L 887.0 725.0 L 901.0 713.0 L 903.0 717.0 L 903.0 728.0 L 931.0 720.0 L 925.0 718.0 L 921.0 714.0 L 920.0 710.0 L 920.0 638.0 L 891.0 642.0 L 891.0 644.0 L 899.0 646.0 L 902.0 650.0 L 903.0 706.0 L 895.0 714.0 L 885.0 718.0 L 874.0 718.0 L 867.0 715.0 L 860.0 705.0 L 859.0 638.0 Z M 809.0 638.0 L 779.0 644.0 L 780.0 646.0 L 786.0 647.0 L 791.0 653.0 L 791.0 716.0 L 789.0 721.0 L 785.0 724.0 L 779.0 725.0 L 780.0 727.0 L 822.0 726.0 L 814.0 723.0 L 810.0 717.0 Z M 1003.0 640.0 L 985.0 636.0 L 970.0 637.0 L 961.0 640.0 L 951.0 649.0 L 948.0 657.0 L 948.0 667.0 L 953.0 677.0 L 964.0 685.0 L 990.0 696.0 L 996.0 703.0 L 997.0 712.0 L 994.0 719.0 L 991.0 722.0 L 985.0 725.0 L 972.0 725.0 L 964.0 721.0 L 956.0 713.0 L 948.0 698.0 L 948.0 723.0 L 965.0 728.0 L 982.0 729.0 L 997.0 725.0 L 1002.0 722.0 L 1009.0 714.0 L 1012.0 704.0 L 1012.0 698.0 L 1010.0 691.0 L 1006.0 685.0 L 999.0 679.0 L 971.0 667.0 L 965.0 662.0 L 963.0 658.0 L 963.0 650.0 L 969.0 642.0 L 973.0 640.0 L 985.0 640.0 L 992.0 643.0 L 999.0 650.0 L 1006.0 663.0 L 1006.0 642.0 Z M 751.0 646.0 L 742.0 639.0 L 730.0 636.0 L 712.0 639.0 L 702.0 645.0 L 695.0 652.0 L 694.0 638.0 L 665.0 644.0 L 665.0 646.0 L 671.0 647.0 L 676.0 654.0 L 676.0 715.0 L 675.0 719.0 L 671.0 723.0 L 666.0 724.0 L 664.0 726.0 L 706.0 726.0 L 700.0 724.0 L 694.0 716.0 L 694.0 658.0 L 706.0 648.0 L 713.0 646.0 L 724.0 646.0 L 729.0 648.0 L 735.0 653.0 L 739.0 663.0 L 739.0 716.0 L 734.0 723.0 L 729.0 724.0 L 727.0 726.0 L 768.0 726.0 L 761.0 723.0 L 757.0 717.0 L 757.0 661.0 L 755.0 653.0 Z M 607.0 636.0 L 590.0 641.0 L 581.0 647.0 L 574.0 655.0 L 569.0 664.0 L 566.0 674.0 L 566.0 693.0 L 571.0 707.0 L 578.0 716.0 L 585.0 722.0 L 600.0 728.0 L 615.0 729.0 L 622.0 728.0 L 634.0 723.0 L 646.0 712.0 L 651.0 702.0 L 649.0 702.0 L 640.0 711.0 L 631.0 715.0 L 612.0 716.0 L 599.0 710.0 L 589.0 699.0 L 585.0 688.0 L 584.0 677.0 L 651.0 676.0 L 651.0 667.0 L 645.0 652.0 L 636.0 643.0 L 622.0 637.0 Z M 584.0 669.0 L 586.0 660.0 L 591.0 650.0 L 597.0 644.0 L 605.0 640.0 L 615.0 640.0 L 620.0 642.0 L 628.0 650.0 L 631.0 657.0 L 631.0 672.0 L 586.0 672.0 Z M 408.0 636.0 L 393.0 639.0 L 382.0 646.0 L 376.0 652.0 L 368.0 666.0 L 365.0 685.0 L 366.0 694.0 L 371.0 707.0 L 384.0 721.0 L 397.0 727.0 L 414.0 729.0 L 428.0 726.0 L 438.0 720.0 L 446.0 712.0 L 451.0 702.0 L 449.0 702.0 L 440.0 711.0 L 431.0 715.0 L 412.0 716.0 L 406.0 714.0 L 396.0 708.0 L 390.0 701.0 L 385.0 689.0 L 384.0 677.0 L 451.0 676.0 L 451.0 667.0 L 447.0 655.0 L 442.0 648.0 L 436.0 643.0 L 422.0 637.0 Z M 384.0 668.0 L 386.0 659.0 L 390.0 651.0 L 398.0 643.0 L 405.0 640.0 L 415.0 640.0 L 420.0 642.0 L 427.0 649.0 L 432.0 663.0 L 431.0 672.0 L 386.0 672.0 Z M 220.0 648.0 L 211.0 640.0 L 197.0 636.0 L 179.0 639.0 L 170.0 644.0 L 162.0 652.0 L 160.0 651.0 L 160.0 638.0 L 131.0 644.0 L 131.0 646.0 L 138.0 648.0 L 142.0 653.0 L 142.0 717.0 L 137.0 723.0 L 130.0 726.0 L 172.0 726.0 L 165.0 723.0 L 160.0 715.0 L 160.0 659.0 L 173.0 648.0 L 179.0 646.0 L 191.0 646.0 L 200.0 651.0 L 204.0 657.0 L 206.0 664.0 L 206.0 716.0 L 201.0 723.0 L 196.0 724.0 L 194.0 726.0 L 235.0 727.0 L 235.0 725.0 L 229.0 723.0 L 226.0 720.0 L 224.0 715.0 L 224.0 659.0 Z M 550.0 630.0 L 527.0 640.0 L 513.0 636.0 L 493.0 638.0 L 479.0 646.0 L 472.0 655.0 L 470.0 661.0 L 471.0 678.0 L 473.0 682.0 L 486.0 693.0 L 479.0 697.0 L 472.0 704.0 L 470.0 709.0 L 470.0 716.0 L 473.0 721.0 L 483.0 727.0 L 472.0 733.0 L 467.0 738.0 L 464.0 745.0 L 466.0 755.0 L 475.0 763.0 L 493.0 768.0 L 514.0 768.0 L 525.0 766.0 L 544.0 757.0 L 554.0 745.0 L 556.0 732.0 L 552.0 722.0 L 547.0 717.0 L 541.0 714.0 L 531.0 712.0 L 489.0 712.0 L 482.0 707.0 L 483.0 700.0 L 489.0 695.0 L 499.0 697.0 L 521.0 696.0 L 532.0 691.0 L 540.0 684.0 L 545.0 675.0 L 545.0 660.0 L 540.0 650.0 L 533.0 644.0 L 550.0 643.0 Z M 479.0 748.0 L 480.0 737.0 L 482.0 733.0 L 488.0 728.0 L 529.0 729.0 L 538.0 732.0 L 544.0 740.0 L 544.0 744.0 L 541.0 751.0 L 535.0 757.0 L 528.0 761.0 L 511.0 765.0 L 496.0 763.0 L 489.0 760.0 L 482.0 754.0 Z M 502.0 640.0 L 513.0 640.0 L 517.0 642.0 L 523.0 648.0 L 527.0 656.0 L 528.0 674.0 L 526.0 681.0 L 521.0 689.0 L 513.0 694.0 L 503.0 694.0 L 499.0 692.0 L 492.0 685.0 L 488.0 675.0 L 487.0 664.0 L 489.0 654.0 L 492.0 648.0 Z M 798.0 594.0 L 789.0 600.0 L 787.0 610.0 L 792.0 618.0 L 796.0 620.0 L 804.0 620.0 L 811.0 615.0 L 813.0 605.0 L 808.0 597.0 L 805.0 595.0 Z M 62.0 591.0 L 61.0 593.0 L 67.0 594.0 L 73.0 599.0 L 76.0 606.0 L 76.0 711.0 L 74.0 718.0 L 69.0 723.0 L 63.0 724.0 L 61.0 726.0 L 109.0 727.0 L 110.0 725.0 L 102.0 723.0 L 96.0 715.0 L 95.0 642.0 L 96.0 604.0 L 101.0 596.0 L 110.0 592.0 Z M 340.0 589.0 L 320.0 592.0 L 323.0 599.0 L 322.0 642.0 L 302.0 636.0 L 282.0 638.0 L 264.0 648.0 L 253.0 663.0 L 249.0 676.0 L 249.0 694.0 L 252.0 704.0 L 257.0 713.0 L 268.0 723.0 L 286.0 729.0 L 299.0 728.0 L 307.0 725.0 L 322.0 713.0 L 323.0 728.0 L 352.0 720.0 L 345.0 718.0 L 341.0 713.0 Z M 292.0 640.0 L 303.0 640.0 L 313.0 644.0 L 320.0 651.0 L 323.0 657.0 L 323.0 707.0 L 315.0 714.0 L 305.0 718.0 L 294.0 718.0 L 282.0 713.0 L 272.0 701.0 L 268.0 689.0 L 268.0 668.0 L 272.0 656.0 L 280.0 646.0 Z M 790.0 377.0 L 619.0 376.0 L 619.0 394.0 L 706.0 394.0 L 711.0 397.0 L 715.0 405.0 L 715.0 411.0 L 708.0 441.0 L 696.0 466.0 L 682.0 486.0 L 662.0 506.0 L 647.0 517.0 L 630.0 526.0 L 603.0 535.0 L 580.0 538.0 L 555.0 538.0 L 570.0 543.0 L 591.0 546.0 L 612.0 547.0 L 646.0 544.0 L 684.0 533.0 L 718.0 514.0 L 749.0 485.0 L 767.0 460.0 L 776.0 442.0 L 784.0 419.0 L 788.0 401.0 Z M 463.0 369.0 L 464.0 460.0 L 467.0 469.0 L 474.0 481.0 L 494.0 503.0 L 517.0 518.0 L 525.0 520.0 L 551.0 522.0 L 590.0 519.0 L 617.0 511.0 L 595.0 506.0 L 579.0 500.0 L 551.0 485.0 L 519.0 462.0 L 500.0 443.0 L 486.0 424.0 L 473.0 399.0 L 467.0 382.0 L 465.0 369.0 Z M 465.0 268.0 L 463.0 278.0 L 463.0 345.0 L 465.0 345.0 L 473.0 316.0 L 490.0 286.0 L 515.0 259.0 L 530.0 248.0 L 557.0 235.0 L 579.0 229.0 L 611.0 227.0 L 639.0 232.0 L 653.0 237.0 L 679.0 252.0 L 708.0 280.0 L 728.0 313.0 L 734.0 329.0 L 739.0 357.0 L 789.0 357.0 L 786.0 331.0 L 776.0 301.0 L 761.0 273.0 L 747.0 254.0 L 723.0 230.0 L 699.0 213.0 L 655.0 194.0 L 621.0 188.0 L 591.0 188.0 L 570.0 191.0 L 546.0 198.0 L 515.0 213.0 L 487.0 234.0 L 472.0 252.0 Z M 329.0 174.0 L 357.0 186.0 L 367.0 196.0 L 374.0 213.0 L 375.0 494.0 L 371.0 513.0 L 363.0 527.0 L 354.0 535.0 L 328.0 545.0 L 501.0 545.0 L 501.0 543.0 L 484.0 539.0 L 470.0 532.0 L 459.0 522.0 L 450.0 507.0 L 445.0 484.0 L 445.0 245.0 L 451.0 214.0 L 461.0 197.0 L 480.0 182.0 L 501.0 176.0 L 501.0 174.0 Z M 412.0 61.0 L 398.0 66.0 L 385.0 78.0 L 380.0 88.0 L 378.0 105.0 L 380.0 114.0 L 385.0 124.0 L 390.0 130.0 L 402.0 138.0 L 414.0 141.0 L 421.0 141.0 L 435.0 137.0 L 445.0 130.0 L 450.0 124.0 L 457.0 108.0 L 457.0 95.0 L 452.0 81.0 L 446.0 73.0 L 440.0 68.0 L 427.0 62.0 Z" fill="#FFFFFF" fill-rule="evenodd"/>
</svg>