<svg xmlns="http://www.w3.org/2000/svg" viewBox="0 0 924 924" width="924" height="924" role="img" aria-label="Indegenius logo">
<title>Indegenius logo</title>
<path d="M 303.0 565.0 L 303.0 706.0 L 305.0 721.0 L 311.0 737.0 L 323.0 756.0 L 349.0 785.0 L 369.0 801.0 L 392.0 814.0 L 426.0 819.0 L 464.0 820.0 L 501.0 817.0 L 526.0 812.0 L 555.0 801.0 L 540.0 799.0 L 506.0 789.0 L 462.0 768.0 L 431.0 749.0 L 392.0 719.0 L 361.0 687.0 L 336.0 652.0 L 317.0 614.0 L 309.0 591.0 Z M 90.0 248.0 L 128.0 264.0 L 144.0 277.0 L 155.0 294.0 L 162.0 322.0 L 161.0 781.0 L 154.0 808.0 L 144.0 826.0 L 127.0 842.0 L 90.0 860.0 L 368.0 860.0 L 318.0 839.0 L 299.0 824.0 L 282.0 797.0 L 275.0 766.0 L 277.0 338.0 L 289.0 302.0 L 312.0 275.0 L 368.0 248.0 Z" fill="#073929" fill-rule="evenodd"/>
<path d="M 90.0 859.0 L 91.0 861.0 L 368.0 861.0 L 92.0 861.0 Z M 306.0 399.0 L 303.0 414.0 L 303.0 530.0 L 320.0 479.0 L 343.0 438.0 L 385.0 391.0 L 409.0 373.0 L 455.0 350.0 L 498.0 339.0 L 543.0 337.0 L 585.0 344.0 L 613.0 354.0 L 652.0 376.0 L 701.0 423.0 L 736.0 484.0 L 746.0 515.0 L 751.0 547.0 L 832.0 547.0 L 827.0 506.0 L 811.0 456.0 L 789.0 414.0 L 763.0 378.0 L 725.0 340.0 L 687.0 312.0 L 644.0 290.0 L 605.0 277.0 L 565.0 270.0 L 517.0 269.0 L 470.0 276.0 L 425.0 291.0 L 387.0 311.0 L 347.0 341.0 L 322.0 368.0 Z M 293.0 247.0 L 366.0 247.0 L 368.0 250.0 L 365.0 252.0 L 368.0 251.0 L 367.0 247.0 Z" fill="#391A60" fill-rule="evenodd"/>
<path d="M 553.0 800.0 L 553.0 803.0 L 556.0 802.0 Z M 833.0 578.0 L 555.0 578.0 L 555.0 610.0 L 697.0 610.0 L 703.0 613.0 L 711.0 625.0 L 711.0 642.0 L 697.0 697.0 L 681.0 730.0 L 658.0 763.0 L 630.0 791.0 L 601.0 812.0 L 567.0 829.0 L 533.0 840.0 L 498.0 846.0 L 452.0 848.0 L 475.0 856.0 L 508.0 861.0 L 557.0 863.0 L 592.0 860.0 L 647.0 846.0 L 707.0 815.0 L 757.0 771.0 L 784.0 737.0 L 802.0 707.0 L 815.0 678.0 L 827.0 638.0 Z M 304.0 564.0 L 302.0 565.0 L 302.0 708.0 L 302.0 571.0 L 304.0 569.0 L 305.0 570.0 L 305.0 568.0 L 304.0 569.0 L 302.0 567.0 Z M 302.0 417.0 L 302.0 530.0 L 304.0 530.0 L 302.0 528.0 L 304.0 526.0 L 305.0 527.0 L 305.0 525.0 L 304.0 526.0 L 302.0 524.0 Z M 89.0 251.0 L 90.0 252.0 L 89.0 249.0 L 91.0 247.0 L 104.0 247.0 L 90.0 247.0 Z M 225.0 60.0 L 210.0 63.0 L 200.0 67.0 L 189.0 74.0 L 177.0 86.0 L 166.0 106.0 L 163.0 120.0 L 163.0 135.0 L 166.0 148.0 L 172.0 161.0 L 184.0 176.0 L 198.0 186.0 L 218.0 193.0 L 233.0 194.0 L 255.0 189.0 L 269.0 181.0 L 280.0 171.0 L 290.0 156.0 L 294.0 146.0 L 296.0 137.0 L 296.0 117.0 L 294.0 108.0 L 288.0 94.0 L 281.0 84.0 L 273.0 76.0 L 253.0 64.0 L 241.0 61.0 Z" fill="#CE932B" fill-rule="evenodd"/>
</svg>