<svg xmlns="http://www.w3.org/2000/svg" viewBox="0 0 1204 995" width="1204" height="995" role="img" aria-label="Indegenius logo">
<title>Indegenius logo</title>
<path d="M 1124.0 913.0 L 1124.0 934.0 L 1127.0 934.0 L 1127.0 928.0 L 1129.0 925.0 L 1137.0 934.0 L 1141.0 934.0 L 1133.0 923.0 L 1140.0 913.0 L 1137.0 913.0 L 1129.0 921.0 L 1127.0 918.0 L 1127.0 913.0 Z M 1097.0 913.0 L 1096.0 933.0 L 1100.0 934.0 L 1100.0 926.0 L 1102.0 925.0 L 1109.0 934.0 L 1112.0 934.0 L 1112.0 932.0 L 1107.0 926.0 L 1111.0 922.0 L 1111.0 916.0 L 1107.0 913.0 Z M 1100.0 917.0 L 1106.0 916.0 L 1108.0 918.0 L 1108.0 921.0 L 1105.0 923.0 L 1101.0 923.0 Z M 1070.0 913.0 L 1064.0 918.0 L 1064.0 929.0 L 1070.0 934.0 L 1078.0 934.0 L 1084.0 928.0 L 1085.0 921.0 L 1080.0 914.0 Z M 1073.0 915.0 L 1077.0 916.0 L 1081.0 921.0 L 1081.0 926.0 L 1076.0 931.0 L 1070.0 930.0 L 1067.0 926.0 L 1068.0 919.0 Z M 1025.0 913.0 L 1032.0 934.0 L 1035.0 933.0 L 1039.0 921.0 L 1041.0 922.0 L 1044.0 934.0 L 1048.0 934.0 L 1054.0 913.0 L 1050.0 913.0 L 1046.0 927.0 L 1041.0 913.0 L 1038.0 913.0 L 1033.0 926.0 L 1029.0 914.0 Z M 999.0 913.0 L 1000.0 916.0 L 1006.0 917.0 L 1006.0 934.0 L 1009.0 934.0 L 1009.0 917.0 L 1015.0 916.0 L 1016.0 913.0 Z M 976.0 913.0 L 976.0 934.0 L 989.0 934.0 L 989.0 931.0 L 979.0 930.0 L 980.0 925.0 L 988.0 925.0 L 988.0 922.0 L 980.0 922.0 L 979.0 917.0 L 989.0 916.0 L 989.0 913.0 Z M 946.0 913.0 L 946.0 934.0 L 949.0 933.0 L 950.0 921.0 L 959.0 933.0 L 963.0 934.0 L 963.0 913.0 L 960.0 913.0 L 959.0 927.0 L 948.0 913.0 Z M 906.0 913.0 L 906.0 934.0 L 918.0 934.0 L 918.0 931.0 L 909.0 930.0 L 909.0 913.0 Z M 883.0 913.0 L 875.0 934.0 L 878.0 934.0 L 881.0 929.0 L 889.0 929.0 L 892.0 934.0 L 895.0 934.0 L 887.0 913.0 Z M 885.0 918.0 L 888.0 924.0 L 887.0 926.0 L 882.0 925.0 Z M 861.0 913.0 L 861.0 934.0 L 864.0 934.0 L 864.0 913.0 Z M 838.0 913.0 L 833.0 916.0 L 831.0 920.0 L 831.0 927.0 L 837.0 934.0 L 845.0 934.0 L 849.0 930.0 L 846.0 929.0 L 843.0 931.0 L 839.0 931.0 L 835.0 927.0 L 835.0 920.0 L 838.0 916.0 L 841.0 915.0 L 846.0 918.0 L 848.0 918.0 L 849.0 916.0 L 845.0 913.0 Z M 806.0 913.0 L 800.0 919.0 L 800.0 928.0 L 806.0 934.0 L 814.0 934.0 L 820.0 928.0 L 820.0 918.0 L 814.0 913.0 Z M 809.0 915.0 L 813.0 916.0 L 817.0 921.0 L 817.0 926.0 L 812.0 931.0 L 806.0 930.0 L 803.0 926.0 L 803.0 920.0 Z M 778.0 913.0 L 776.0 914.0 L 774.0 919.0 L 776.0 923.0 L 784.0 926.0 L 785.0 929.0 L 783.0 931.0 L 778.0 931.0 L 775.0 929.0 L 774.0 932.0 L 777.0 934.0 L 784.0 934.0 L 788.0 930.0 L 788.0 925.0 L 780.0 921.0 L 778.0 917.0 L 787.0 917.0 L 788.0 915.0 L 785.0 913.0 Z M 734.0 913.0 L 734.0 933.0 L 746.0 934.0 L 746.0 931.0 L 737.0 930.0 L 737.0 913.0 Z M 711.0 913.0 L 703.0 934.0 L 706.0 934.0 L 709.0 929.0 L 717.0 929.0 L 720.0 934.0 L 723.0 934.0 L 715.0 913.0 Z M 713.0 918.0 L 716.0 924.0 L 715.0 926.0 L 710.0 925.0 Z M 676.0 913.0 L 675.0 928.0 L 677.0 932.0 L 680.0 934.0 L 689.0 933.0 L 692.0 929.0 L 693.0 914.0 L 689.0 913.0 L 689.0 928.0 L 686.0 931.0 L 682.0 931.0 L 679.0 928.0 L 679.0 914.0 Z M 648.0 913.0 L 648.0 916.0 L 654.0 917.0 L 654.0 933.0 L 657.0 934.0 L 658.0 917.0 L 663.0 916.0 L 664.0 913.0 Z M 626.0 913.0 L 620.0 918.0 L 619.0 925.0 L 624.0 933.0 L 633.0 934.0 L 637.0 930.0 L 635.0 928.0 L 632.0 931.0 L 627.0 931.0 L 623.0 927.0 L 623.0 920.0 L 625.0 917.0 L 629.0 915.0 L 635.0 918.0 L 637.0 916.0 L 633.0 913.0 Z M 595.0 913.0 L 594.0 933.0 L 607.0 934.0 L 608.0 931.0 L 597.0 930.0 L 598.0 925.0 L 607.0 924.0 L 607.0 922.0 L 598.0 922.0 L 597.0 917.0 L 608.0 916.0 L 608.0 913.0 Z M 570.0 913.0 L 570.0 933.0 L 582.0 934.0 L 582.0 931.0 L 573.0 930.0 L 573.0 913.0 Z M 546.0 913.0 L 546.0 934.0 L 558.0 934.0 L 558.0 931.0 L 549.0 930.0 L 549.0 913.0 Z M 520.0 913.0 L 520.0 934.0 L 533.0 934.0 L 533.0 931.0 L 523.0 930.0 L 524.0 925.0 L 532.0 924.0 L 532.0 922.0 L 524.0 922.0 L 523.0 917.0 L 533.0 916.0 L 533.0 913.0 Z M 492.0 913.0 L 492.0 916.0 L 498.0 917.0 L 498.0 933.0 L 502.0 934.0 L 502.0 917.0 L 507.0 916.0 L 508.0 913.0 Z M 463.0 913.0 L 463.0 934.0 L 466.0 934.0 L 467.0 920.0 L 478.0 934.0 L 480.0 934.0 L 481.0 914.0 L 477.0 914.0 L 476.0 926.0 L 467.0 914.0 Z M 446.0 913.0 L 446.0 934.0 L 448.0 934.0 L 449.0 913.0 Z M 395.0 913.0 L 396.0 916.0 L 401.0 917.0 L 401.0 933.0 L 404.0 934.0 L 405.0 917.0 L 411.0 916.0 L 411.0 913.0 Z M 373.0 913.0 L 370.0 915.0 L 369.0 920.0 L 371.0 923.0 L 378.0 925.0 L 380.0 929.0 L 378.0 931.0 L 374.0 931.0 L 371.0 929.0 L 368.0 931.0 L 372.0 934.0 L 379.0 934.0 L 383.0 930.0 L 383.0 926.0 L 381.0 923.0 L 374.0 921.0 L 372.0 918.0 L 375.0 915.0 L 380.0 917.0 L 382.0 915.0 L 379.0 913.0 Z M 341.0 913.0 L 340.0 933.0 L 344.0 933.0 L 344.0 926.0 L 346.0 925.0 L 353.0 934.0 L 356.0 934.0 L 351.0 926.0 L 355.0 921.0 L 354.0 915.0 L 351.0 913.0 Z M 344.0 917.0 L 350.0 916.0 L 351.0 921.0 L 345.0 923.0 Z M 323.0 913.0 L 322.0 933.0 L 325.0 934.0 L 326.0 914.0 Z M 309.0 913.0 L 295.0 914.0 L 296.0 934.0 L 299.0 933.0 L 300.0 925.0 L 308.0 924.0 L 307.0 922.0 L 300.0 922.0 L 299.0 917.0 L 308.0 916.0 Z M 254.0 913.0 L 251.0 915.0 L 250.0 920.0 L 252.0 923.0 L 259.0 925.0 L 261.0 929.0 L 259.0 931.0 L 254.0 931.0 L 251.0 929.0 L 250.0 932.0 L 253.0 934.0 L 260.0 934.0 L 264.0 930.0 L 264.0 926.0 L 262.0 923.0 L 256.0 921.0 L 253.0 918.0 L 256.0 915.0 L 261.0 917.0 L 263.0 915.0 L 260.0 913.0 Z M 236.0 913.0 L 234.0 913.0 L 234.0 920.0 L 236.0 918.0 Z M 212.0 913.0 L 203.0 934.0 L 206.0 934.0 L 209.0 929.0 L 217.0 929.0 L 220.0 934.0 L 223.0 934.0 L 215.0 913.0 Z M 213.0 918.0 L 216.0 924.0 L 215.0 926.0 L 210.0 925.0 Z M 180.0 913.0 L 174.0 917.0 L 173.0 927.0 L 178.0 933.0 L 187.0 934.0 L 191.0 930.0 L 179.0 930.0 L 176.0 925.0 L 176.0 922.0 L 180.0 916.0 L 184.0 915.0 L 188.0 918.0 L 191.0 916.0 L 187.0 913.0 Z M 156.0 913.0 L 155.0 931.0 L 156.0 934.0 L 158.0 934.0 L 159.0 914.0 Z M 126.0 913.0 L 126.0 934.0 L 129.0 934.0 L 129.0 927.0 L 131.0 925.0 L 134.0 927.0 L 138.0 934.0 L 142.0 934.0 L 137.0 926.0 L 141.0 921.0 L 140.0 915.0 L 136.0 913.0 Z M 130.0 917.0 L 136.0 916.0 L 137.0 921.0 L 131.0 923.0 Z M 112.0 913.0 L 99.0 913.0 L 100.0 934.0 L 103.0 933.0 L 104.0 925.0 L 112.0 924.0 L 111.0 922.0 L 104.0 922.0 L 103.0 917.0 L 112.0 916.0 Z M 75.0 913.0 L 66.0 934.0 L 69.0 934.0 L 72.0 929.0 L 81.0 929.0 L 83.0 934.0 L 86.0 934.0 L 79.0 914.0 Z M 76.0 918.0 L 79.0 923.0 L 78.0 926.0 L 73.0 925.0 Z M 648.0 867.0 L 648.0 870.0 L 815.0 869.0 L 814.0 867.0 Z M 383.0 868.0 L 383.0 870.0 L 551.0 870.0 L 550.0 867.0 Z M 598.0 860.0 L 592.0 864.0 L 591.0 871.0 L 595.0 876.0 L 600.0 877.0 L 606.0 873.0 L 607.0 866.0 L 603.0 861.0 Z M 941.0 697.0 L 941.0 699.0 L 947.0 700.0 L 953.0 706.0 L 954.0 709.0 L 954.0 769.0 L 957.0 780.0 L 965.0 791.0 L 977.0 797.0 L 995.0 797.0 L 1010.0 790.0 L 1023.0 778.0 L 1024.0 796.0 L 1046.0 791.0 L 1056.0 787.0 L 1048.0 785.0 L 1045.0 782.0 L 1043.0 775.0 L 1043.0 692.0 L 1010.0 697.0 L 1011.0 699.0 L 1019.0 701.0 L 1023.0 707.0 L 1024.0 770.0 L 1016.0 779.0 L 1003.0 785.0 L 990.0 785.0 L 985.0 783.0 L 979.0 778.0 L 975.0 770.0 L 974.0 692.0 Z M 918.0 692.0 L 884.0 699.0 L 884.0 701.0 L 891.0 702.0 L 896.0 707.0 L 898.0 715.0 L 897.0 784.0 L 893.0 790.0 L 885.0 792.0 L 884.0 795.0 L 932.0 794.0 L 930.0 792.0 L 925.0 792.0 L 922.0 790.0 L 918.0 783.0 Z M 1098.0 690.0 L 1082.0 696.0 L 1074.0 704.0 L 1070.0 713.0 L 1070.0 725.0 L 1076.0 737.0 L 1082.0 742.0 L 1120.0 760.0 L 1126.0 768.0 L 1127.0 777.0 L 1124.0 784.0 L 1118.0 790.0 L 1109.0 793.0 L 1097.0 792.0 L 1088.0 788.0 L 1080.0 780.0 L 1070.0 761.0 L 1069.0 789.0 L 1071.0 791.0 L 1092.0 797.0 L 1115.0 797.0 L 1129.0 792.0 L 1140.0 781.0 L 1144.0 767.0 L 1143.0 758.0 L 1138.0 748.0 L 1129.0 740.0 L 1093.0 723.0 L 1087.0 715.0 L 1087.0 706.0 L 1089.0 702.0 L 1096.0 696.0 L 1102.0 694.0 L 1114.0 695.0 L 1122.0 699.0 L 1128.0 705.0 L 1133.0 713.0 L 1135.0 720.0 L 1137.0 721.0 L 1137.0 696.0 L 1118.0 690.0 Z M 853.0 702.0 L 846.0 695.0 L 834.0 690.0 L 818.0 690.0 L 808.0 693.0 L 796.0 700.0 L 787.0 709.0 L 786.0 692.0 L 753.0 699.0 L 753.0 701.0 L 759.0 702.0 L 763.0 705.0 L 766.0 713.0 L 766.0 782.0 L 764.0 787.0 L 760.0 791.0 L 753.0 792.0 L 752.0 794.0 L 800.0 794.0 L 798.0 792.0 L 792.0 791.0 L 788.0 787.0 L 786.0 782.0 L 786.0 716.0 L 800.0 704.0 L 810.0 701.0 L 818.0 701.0 L 826.0 703.0 L 833.0 709.0 L 838.0 722.0 L 838.0 782.0 L 836.0 787.0 L 832.0 791.0 L 826.0 792.0 L 825.0 795.0 L 871.0 795.0 L 872.0 793.0 L 864.0 791.0 L 859.0 783.0 L 859.0 721.0 L 858.0 713.0 Z M 687.0 690.0 L 678.0 692.0 L 667.0 697.0 L 659.0 703.0 L 652.0 711.0 L 645.0 724.0 L 642.0 734.0 L 642.0 756.0 L 644.0 764.0 L 649.0 774.0 L 655.0 782.0 L 662.0 788.0 L 679.0 796.0 L 698.0 798.0 L 715.0 794.0 L 724.0 789.0 L 735.0 778.0 L 740.0 769.0 L 740.0 766.0 L 738.0 766.0 L 730.0 775.0 L 719.0 781.0 L 712.0 783.0 L 692.0 782.0 L 679.0 775.0 L 668.0 762.0 L 664.0 752.0 L 663.0 737.0 L 740.0 736.0 L 740.0 725.0 L 738.0 717.0 L 733.0 707.0 L 721.0 696.0 L 704.0 690.0 Z M 663.0 726.0 L 670.0 707.0 L 678.0 699.0 L 686.0 695.0 L 697.0 694.0 L 709.0 700.0 L 715.0 708.0 L 718.0 717.0 L 719.0 730.0 L 664.0 731.0 Z M 455.0 690.0 L 443.0 693.0 L 429.0 701.0 L 417.0 715.0 L 413.0 723.0 L 409.0 739.0 L 410.0 758.0 L 413.0 767.0 L 421.0 780.0 L 433.0 790.0 L 451.0 797.0 L 473.0 797.0 L 483.0 794.0 L 493.0 788.0 L 502.0 779.0 L 508.0 769.0 L 508.0 766.0 L 506.0 766.0 L 498.0 775.0 L 484.0 782.0 L 464.0 783.0 L 457.0 781.0 L 448.0 776.0 L 437.0 764.0 L 431.0 750.0 L 430.0 738.0 L 432.0 736.0 L 508.0 736.0 L 508.0 724.0 L 506.0 717.0 L 500.0 706.0 L 487.0 695.0 L 472.0 690.0 Z M 430.0 729.0 L 434.0 714.0 L 439.0 705.0 L 450.0 696.0 L 456.0 694.0 L 465.0 694.0 L 474.0 698.0 L 480.0 704.0 L 485.0 715.0 L 485.0 731.0 L 431.0 731.0 Z M 239.0 702.0 L 232.0 695.0 L 220.0 690.0 L 204.0 690.0 L 196.0 692.0 L 181.0 700.0 L 171.0 709.0 L 170.0 692.0 L 136.0 699.0 L 136.0 701.0 L 144.0 703.0 L 149.0 710.0 L 149.0 783.0 L 143.0 791.0 L 137.0 792.0 L 136.0 795.0 L 184.0 795.0 L 183.0 792.0 L 178.0 792.0 L 173.0 788.0 L 170.0 779.0 L 170.0 717.0 L 180.0 707.0 L 195.0 701.0 L 205.0 701.0 L 216.0 706.0 L 220.0 711.0 L 224.0 722.0 L 224.0 782.0 L 222.0 787.0 L 218.0 791.0 L 212.0 792.0 L 210.0 794.0 L 258.0 795.0 L 257.0 792.0 L 251.0 791.0 L 245.0 783.0 L 245.0 720.0 L 243.0 710.0 Z M 625.0 683.0 L 610.0 688.0 L 599.0 694.0 L 585.0 690.0 L 562.0 691.0 L 545.0 699.0 L 534.0 712.0 L 531.0 722.0 L 531.0 732.0 L 533.0 739.0 L 539.0 748.0 L 550.0 756.0 L 536.0 766.0 L 533.0 770.0 L 531.0 777.0 L 534.0 788.0 L 546.0 795.0 L 533.0 803.0 L 529.0 807.0 L 525.0 815.0 L 526.0 826.0 L 528.0 830.0 L 535.0 836.0 L 547.0 841.0 L 557.0 843.0 L 575.0 844.0 L 592.0 842.0 L 611.0 835.0 L 617.0 831.0 L 628.0 819.0 L 631.0 811.0 L 631.0 800.0 L 627.0 790.0 L 619.0 783.0 L 612.0 780.0 L 597.0 778.0 L 553.0 778.0 L 549.0 776.0 L 545.0 771.0 L 546.0 765.0 L 555.0 758.0 L 567.0 761.0 L 585.0 761.0 L 602.0 755.0 L 612.0 747.0 L 618.0 737.0 L 620.0 724.0 L 616.0 710.0 L 605.0 699.0 L 625.0 698.0 Z M 542.0 811.0 L 545.0 804.0 L 554.0 796.0 L 597.0 797.0 L 610.0 801.0 L 617.0 809.0 L 617.0 817.0 L 612.0 826.0 L 601.0 834.0 L 582.0 839.0 L 570.0 839.0 L 558.0 836.0 L 547.0 829.0 L 542.0 820.0 Z M 571.0 694.0 L 579.0 694.0 L 588.0 698.0 L 594.0 705.0 L 599.0 718.0 L 599.0 734.0 L 597.0 741.0 L 592.0 750.0 L 588.0 754.0 L 581.0 757.0 L 571.0 757.0 L 563.0 753.0 L 557.0 746.0 L 552.0 733.0 L 553.0 712.0 L 557.0 704.0 L 564.0 697.0 Z M 904.0 641.0 L 896.0 647.0 L 893.0 654.0 L 893.0 658.0 L 897.0 666.0 L 901.0 669.0 L 913.0 670.0 L 917.0 668.0 L 922.0 661.0 L 922.0 651.0 L 916.0 643.0 L 912.0 641.0 Z M 382.0 635.0 L 363.0 637.0 L 357.0 639.0 L 361.0 645.0 L 362.0 651.0 L 361.0 697.0 L 340.0 690.0 L 323.0 690.0 L 314.0 692.0 L 302.0 697.0 L 293.0 703.0 L 281.0 718.0 L 274.0 739.0 L 275.0 760.0 L 283.0 778.0 L 289.0 785.0 L 297.0 791.0 L 312.0 797.0 L 331.0 797.0 L 346.0 791.0 L 360.0 779.0 L 362.0 780.0 L 362.0 796.0 L 395.0 788.0 L 395.0 786.0 L 387.0 785.0 L 384.0 782.0 L 382.0 776.0 Z M 327.0 694.0 L 335.0 694.0 L 349.0 699.0 L 356.0 705.0 L 362.0 716.0 L 362.0 771.0 L 349.0 782.0 L 334.0 786.0 L 322.0 784.0 L 314.0 780.0 L 304.0 770.0 L 297.0 754.0 L 295.0 740.0 L 297.0 724.0 L 304.0 708.0 L 312.0 700.0 Z M 60.0 635.0 L 59.0 638.0 L 68.0 640.0 L 74.0 646.0 L 76.0 653.0 L 76.0 777.0 L 73.0 786.0 L 69.0 790.0 L 65.0 792.0 L 60.0 792.0 L 59.0 794.0 L 114.0 795.0 L 114.0 792.0 L 104.0 790.0 L 101.0 787.0 L 98.0 780.0 L 98.0 652.0 L 101.0 645.0 L 106.0 640.0 L 112.0 639.0 L 115.0 636.0 Z M 874.0 409.0 L 684.0 408.0 L 684.0 428.0 L 781.0 428.0 L 785.0 430.0 L 790.0 437.0 L 790.0 453.0 L 781.0 485.0 L 770.0 508.0 L 754.0 531.0 L 739.0 547.0 L 717.0 564.0 L 699.0 574.0 L 670.0 584.0 L 647.0 588.0 L 614.0 589.0 L 652.0 596.0 L 680.0 597.0 L 707.0 595.0 L 729.0 591.0 L 754.0 583.0 L 790.0 564.0 L 808.0 550.0 L 826.0 532.0 L 851.0 496.0 L 868.0 452.0 Z M 512.0 399.0 L 513.0 504.0 L 526.0 528.0 L 546.0 549.0 L 564.0 562.0 L 572.0 566.0 L 599.0 570.0 L 641.0 569.0 L 666.0 564.0 L 682.0 558.0 L 658.0 553.0 L 637.0 545.0 L 606.0 528.0 L 576.0 506.0 L 553.0 483.0 L 535.0 458.0 L 519.0 424.0 L 514.0 402.0 Z M 513.0 290.0 L 512.0 375.0 L 522.0 344.0 L 535.0 318.0 L 552.0 295.0 L 583.0 268.0 L 610.0 254.0 L 642.0 245.0 L 671.0 243.0 L 705.0 248.0 L 744.0 266.0 L 762.0 280.0 L 779.0 298.0 L 794.0 319.0 L 806.0 343.0 L 817.0 387.0 L 873.0 387.0 L 869.0 358.0 L 860.0 330.0 L 848.0 305.0 L 829.0 277.0 L 802.0 249.0 L 784.0 235.0 L 748.0 215.0 L 723.0 206.0 L 689.0 200.0 L 651.0 200.0 L 606.0 210.0 L 570.0 227.0 L 541.0 248.0 L 525.0 265.0 Z M 368.0 183.0 L 366.0 186.0 L 384.0 190.0 L 404.0 205.0 L 414.0 231.0 L 414.0 540.0 L 409.0 562.0 L 400.0 577.0 L 389.0 586.0 L 365.0 595.0 L 553.0 596.0 L 552.0 593.0 L 532.0 588.0 L 515.0 578.0 L 500.0 560.0 L 494.0 542.0 L 493.0 252.0 L 499.0 226.0 L 507.0 212.0 L 526.0 195.0 L 554.0 184.0 Z M 452.0 59.0 L 436.0 66.0 L 424.0 78.0 L 418.0 91.0 L 417.0 110.0 L 423.0 126.0 L 434.0 138.0 L 445.0 144.0 L 452.0 146.0 L 469.0 146.0 L 484.0 140.0 L 495.0 130.0 L 503.0 114.0 L 504.0 95.0 L 499.0 81.0 L 494.0 74.0 L 485.0 66.0 L 469.0 59.0 Z" fill="#FFFFFF" fill-rule="evenodd"/>
</svg>