<svg xmlns="http://www.w3.org/2000/svg" viewBox="0 0 1204 995" width="1204" height="995" role="img" aria-label="Indegenius logo">
<title>Indegenius logo</title>
<path d="M 396.0 914.0 L 402.0 917.0 L 402.0 933.0 L 404.0 933.0 L 404.0 917.0 L 406.0 915.0 L 411.0 914.0 Z M 341.0 914.0 L 341.0 933.0 L 343.0 933.0 L 343.0 926.0 L 345.0 924.0 L 350.0 928.0 L 353.0 933.0 L 355.0 933.0 L 350.0 926.0 L 354.0 922.0 L 354.0 916.0 L 352.0 914.0 Z M 345.0 915.0 L 350.0 915.0 L 353.0 919.0 L 350.0 923.0 L 345.0 923.0 L 343.0 921.0 L 343.0 917.0 Z M 323.0 914.0 L 323.0 933.0 L 325.0 933.0 L 325.0 914.0 Z M 308.0 914.0 L 296.0 914.0 L 296.0 933.0 L 298.0 933.0 L 298.0 926.0 L 300.0 924.0 L 307.0 924.0 L 300.0 923.0 L 298.0 921.0 L 298.0 917.0 L 300.0 915.0 Z M 212.0 914.0 L 204.0 933.0 L 206.0 933.0 L 209.0 928.0 L 217.0 928.0 L 220.0 933.0 L 222.0 933.0 L 215.0 915.0 Z M 213.0 917.0 L 217.0 924.0 L 215.0 927.0 L 211.0 927.0 L 209.0 925.0 Z M 127.0 914.0 L 127.0 933.0 L 129.0 933.0 L 128.0 926.0 L 130.0 924.0 L 132.0 924.0 L 137.0 931.0 L 141.0 933.0 L 136.0 927.0 L 136.0 925.0 L 140.0 921.0 L 140.0 917.0 L 137.0 914.0 Z M 128.0 918.0 L 131.0 915.0 L 136.0 915.0 L 138.0 917.0 L 138.0 921.0 L 136.0 923.0 L 130.0 923.0 L 128.0 921.0 Z M 112.0 914.0 L 100.0 914.0 L 100.0 933.0 L 102.0 933.0 L 102.0 926.0 L 104.0 924.0 L 111.0 924.0 L 104.0 923.0 L 102.0 921.0 L 102.0 917.0 L 104.0 915.0 Z M 75.0 914.0 L 67.0 933.0 L 69.0 933.0 L 72.0 928.0 L 81.0 928.0 L 85.0 933.0 L 78.0 914.0 Z M 76.0 918.0 L 80.0 923.0 L 78.0 927.0 L 74.0 927.0 L 72.0 925.0 Z M 375.0 913.0 L 371.0 915.0 L 370.0 920.0 L 371.0 922.0 L 377.0 924.0 L 381.0 928.0 L 378.0 932.0 L 374.0 932.0 L 371.0 930.0 L 369.0 931.0 L 372.0 933.0 L 379.0 933.0 L 382.0 930.0 L 382.0 925.0 L 375.0 922.0 L 372.0 919.0 L 372.0 917.0 L 374.0 915.0 L 381.0 915.0 Z M 261.0 914.0 L 257.0 913.0 L 251.0 916.0 L 252.0 922.0 L 258.0 924.0 L 262.0 928.0 L 259.0 932.0 L 251.0 930.0 L 250.0 931.0 L 253.0 933.0 L 260.0 933.0 L 263.0 930.0 L 262.0 924.0 L 256.0 922.0 L 252.0 918.0 L 255.0 915.0 L 262.0 916.0 Z M 235.0 913.0 L 234.0 919.0 L 236.0 917.0 Z M 179.0 914.0 L 174.0 919.0 L 174.0 927.0 L 180.0 933.0 L 187.0 933.0 L 190.0 930.0 L 181.0 932.0 L 177.0 929.0 L 175.0 923.0 L 176.0 919.0 L 180.0 915.0 L 186.0 915.0 L 188.0 917.0 L 190.0 916.0 L 184.0 913.0 Z M 941.0 698.0 L 947.0 699.0 L 953.0 705.0 L 955.0 710.0 L 955.0 771.0 L 957.0 778.0 L 964.0 789.0 L 978.0 796.0 L 994.0 796.0 L 1010.0 789.0 L 1023.0 777.0 L 1025.0 779.0 L 1024.0 795.0 L 1055.0 787.0 L 1048.0 786.0 L 1044.0 782.0 L 1042.0 776.0 L 1042.0 693.0 L 1011.0 698.0 L 1019.0 700.0 L 1024.0 707.0 L 1025.0 771.0 L 1016.0 780.0 L 1003.0 786.0 L 987.0 785.0 L 982.0 782.0 L 975.0 773.0 L 973.0 763.0 L 973.0 693.0 Z M 917.0 693.0 L 885.0 700.0 L 891.0 701.0 L 896.0 705.0 L 899.0 715.0 L 898.0 784.0 L 893.0 791.0 L 885.0 794.0 L 931.0 794.0 L 923.0 792.0 L 920.0 789.0 L 917.0 782.0 Z M 1134.0 695.0 L 1111.0 690.0 L 1097.0 691.0 L 1085.0 695.0 L 1075.0 704.0 L 1071.0 714.0 L 1071.0 725.0 L 1075.0 734.0 L 1087.0 744.0 L 1117.0 757.0 L 1126.0 766.0 L 1128.0 775.0 L 1125.0 784.0 L 1118.0 791.0 L 1110.0 794.0 L 1097.0 793.0 L 1088.0 789.0 L 1079.0 780.0 L 1070.0 762.0 L 1070.0 789.0 L 1093.0 796.0 L 1114.0 796.0 L 1130.0 790.0 L 1137.0 784.0 L 1141.0 777.0 L 1143.0 769.0 L 1142.0 757.0 L 1138.0 749.0 L 1124.0 738.0 L 1108.0 732.0 L 1093.0 724.0 L 1088.0 719.0 L 1086.0 714.0 L 1087.0 704.0 L 1093.0 697.0 L 1099.0 694.0 L 1109.0 693.0 L 1117.0 695.0 L 1122.0 698.0 L 1129.0 705.0 L 1137.0 720.0 L 1137.0 697.0 Z M 852.0 702.0 L 843.0 694.0 L 829.0 690.0 L 810.0 693.0 L 796.0 701.0 L 787.0 710.0 L 785.0 708.0 L 785.0 693.0 L 753.0 700.0 L 759.0 701.0 L 764.0 705.0 L 767.0 715.0 L 767.0 779.0 L 765.0 787.0 L 760.0 792.0 L 753.0 794.0 L 799.0 794.0 L 792.0 792.0 L 787.0 787.0 L 785.0 780.0 L 785.0 716.0 L 795.0 706.0 L 809.0 700.0 L 819.0 700.0 L 829.0 704.0 L 834.0 709.0 L 839.0 722.0 L 839.0 782.0 L 837.0 787.0 L 832.0 792.0 L 826.0 794.0 L 871.0 794.0 L 864.0 792.0 L 858.0 784.0 L 858.0 722.0 L 856.0 710.0 Z M 692.0 690.0 L 681.0 692.0 L 667.0 698.0 L 653.0 711.0 L 644.0 730.0 L 642.0 748.0 L 645.0 764.0 L 650.0 774.0 L 662.0 787.0 L 671.0 792.0 L 684.0 796.0 L 704.0 796.0 L 712.0 794.0 L 724.0 788.0 L 734.0 778.0 L 740.0 767.0 L 738.0 767.0 L 730.0 776.0 L 719.0 782.0 L 712.0 784.0 L 692.0 783.0 L 679.0 776.0 L 671.0 768.0 L 665.0 758.0 L 661.0 738.0 L 664.0 735.0 L 740.0 735.0 L 740.0 730.0 L 735.0 712.0 L 724.0 699.0 L 709.0 692.0 Z M 662.0 725.0 L 669.0 707.0 L 679.0 697.0 L 686.0 694.0 L 697.0 693.0 L 708.0 698.0 L 715.0 706.0 L 719.0 717.0 L 720.0 730.0 L 718.0 732.0 L 664.0 732.0 L 662.0 730.0 Z M 461.0 690.0 L 443.0 694.0 L 432.0 700.0 L 423.0 708.0 L 415.0 720.0 L 412.0 728.0 L 410.0 738.0 L 410.0 754.0 L 415.0 770.0 L 422.0 780.0 L 430.0 787.0 L 447.0 795.0 L 472.0 796.0 L 483.0 793.0 L 493.0 787.0 L 503.0 776.0 L 507.0 767.0 L 498.0 776.0 L 484.0 783.0 L 464.0 784.0 L 457.0 782.0 L 448.0 777.0 L 436.0 764.0 L 431.0 753.0 L 429.0 737.0 L 431.0 735.0 L 507.0 735.0 L 507.0 725.0 L 501.0 709.0 L 493.0 700.0 L 477.0 692.0 Z M 430.0 724.0 L 436.0 708.0 L 445.0 698.0 L 453.0 694.0 L 464.0 693.0 L 474.0 697.0 L 483.0 707.0 L 487.0 719.0 L 487.0 730.0 L 485.0 732.0 L 432.0 732.0 L 430.0 730.0 Z M 236.0 699.0 L 231.0 695.0 L 221.0 691.0 L 202.0 691.0 L 187.0 697.0 L 172.0 710.0 L 169.0 708.0 L 169.0 693.0 L 137.0 700.0 L 144.0 702.0 L 150.0 710.0 L 150.0 783.0 L 149.0 786.0 L 143.0 792.0 L 137.0 794.0 L 183.0 794.0 L 176.0 792.0 L 172.0 788.0 L 169.0 779.0 L 169.0 717.0 L 180.0 706.0 L 194.0 700.0 L 206.0 700.0 L 215.0 704.0 L 221.0 711.0 L 224.0 718.0 L 225.0 780.0 L 223.0 787.0 L 218.0 792.0 L 211.0 794.0 L 258.0 794.0 L 251.0 792.0 L 246.0 787.0 L 244.0 782.0 L 244.0 717.0 L 242.0 709.0 Z M 624.0 683.0 L 598.0 695.0 L 579.0 690.0 L 562.0 692.0 L 553.0 695.0 L 545.0 700.0 L 535.0 712.0 L 532.0 721.0 L 532.0 732.0 L 534.0 739.0 L 540.0 748.0 L 551.0 756.0 L 537.0 766.0 L 532.0 777.0 L 535.0 788.0 L 546.0 795.0 L 544.0 798.0 L 532.0 805.0 L 526.0 815.0 L 527.0 826.0 L 529.0 830.0 L 535.0 835.0 L 543.0 839.0 L 556.0 842.0 L 575.0 843.0 L 592.0 841.0 L 613.0 833.0 L 627.0 819.0 L 630.0 812.0 L 630.0 799.0 L 626.0 790.0 L 619.0 784.0 L 608.0 780.0 L 597.0 779.0 L 553.0 779.0 L 549.0 777.0 L 544.0 771.0 L 545.0 765.0 L 555.0 757.0 L 566.0 760.0 L 585.0 760.0 L 596.0 757.0 L 610.0 748.0 L 618.0 735.0 L 619.0 721.0 L 613.0 707.0 L 604.0 699.0 L 606.0 697.0 L 624.0 697.0 Z M 541.0 811.0 L 544.0 804.0 L 554.0 795.0 L 598.0 796.0 L 610.0 800.0 L 617.0 807.0 L 618.0 816.0 L 615.0 823.0 L 606.0 832.0 L 596.0 837.0 L 588.0 839.0 L 572.0 840.0 L 561.0 838.0 L 551.0 833.0 L 542.0 823.0 Z M 572.0 693.0 L 579.0 693.0 L 588.0 697.0 L 595.0 705.0 L 600.0 720.0 L 600.0 732.0 L 595.0 747.0 L 589.0 754.0 L 580.0 758.0 L 572.0 758.0 L 565.0 755.0 L 555.0 744.0 L 551.0 732.0 L 551.0 717.0 L 556.0 704.0 L 564.0 696.0 Z M 60.0 637.0 L 68.0 639.0 L 74.0 645.0 L 77.0 654.0 L 77.0 777.0 L 74.0 786.0 L 69.0 791.0 L 60.0 794.0 L 114.0 794.0 L 104.0 791.0 L 100.0 787.0 L 97.0 780.0 L 97.0 652.0 L 99.0 646.0 L 103.0 641.0 L 108.0 638.0 L 114.0 637.0 Z M 381.0 636.0 L 358.0 639.0 L 361.0 643.0 L 363.0 651.0 L 363.0 694.0 L 360.0 698.0 L 355.0 695.0 L 341.0 691.0 L 330.0 690.0 L 317.0 692.0 L 297.0 701.0 L 289.0 708.0 L 283.0 716.0 L 276.0 733.0 L 275.0 756.0 L 282.0 775.0 L 297.0 790.0 L 312.0 796.0 L 331.0 796.0 L 346.0 790.0 L 361.0 777.0 L 363.0 779.0 L 363.0 795.0 L 394.0 787.0 L 387.0 786.0 L 383.0 782.0 L 381.0 776.0 Z M 328.0 693.0 L 339.0 694.0 L 349.0 698.0 L 357.0 705.0 L 363.0 716.0 L 363.0 771.0 L 351.0 782.0 L 335.0 787.0 L 322.0 785.0 L 306.0 774.0 L 299.0 763.0 L 294.0 741.0 L 297.0 720.0 L 303.0 708.0 L 312.0 699.0 Z M 513.0 402.0 L 513.0 499.0 L 516.0 509.0 L 525.0 525.0 L 546.0 548.0 L 564.0 561.0 L 572.0 565.0 L 600.0 569.0 L 640.0 568.0 L 662.0 564.0 L 680.0 558.0 L 658.0 554.0 L 629.0 542.0 L 608.0 530.0 L 575.0 506.0 L 551.0 482.0 L 534.0 458.0 L 518.0 424.0 Z M 367.0 184.0 L 390.0 192.0 L 404.0 204.0 L 411.0 216.0 L 415.0 233.0 L 415.0 538.0 L 409.0 564.0 L 401.0 577.0 L 389.0 587.0 L 366.0 595.0 L 553.0 595.0 L 532.0 589.0 L 515.0 579.0 L 499.0 560.0 L 492.0 536.0 L 494.0 238.0 L 502.0 218.0 L 513.0 204.0 L 526.0 194.0 L 553.0 184.0 Z" fill="#073929" fill-rule="evenodd"/>
<path d="M 132.0 925.0 L 129.0 926.0 L 129.0 932.0 L 129.0 927.0 Z M 214.0 918.0 L 213.0 917.0 L 212.0 919.0 Z M 735.0 913.0 L 735.0 933.0 L 746.0 933.0 L 746.0 931.0 L 739.0 932.0 L 737.0 930.0 L 737.0 914.0 Z M 712.0 913.0 L 704.0 933.0 L 706.0 933.0 L 709.0 928.0 L 717.0 928.0 L 720.0 933.0 L 722.0 933.0 L 715.0 914.0 Z M 713.0 918.0 L 717.0 924.0 L 715.0 927.0 L 711.0 927.0 L 709.0 925.0 Z M 677.0 913.0 L 677.0 931.0 L 680.0 933.0 L 688.0 933.0 L 692.0 928.0 L 692.0 914.0 L 690.0 913.0 L 690.0 927.0 L 687.0 931.0 L 683.0 932.0 L 678.0 928.0 Z M 649.0 913.0 L 648.0 915.0 L 653.0 915.0 L 655.0 917.0 L 655.0 933.0 L 657.0 933.0 L 657.0 917.0 L 659.0 915.0 L 663.0 915.0 L 663.0 913.0 Z M 627.0 913.0 L 622.0 916.0 L 620.0 920.0 L 620.0 927.0 L 625.0 933.0 L 630.0 934.0 L 634.0 933.0 L 637.0 930.0 L 635.0 929.0 L 631.0 932.0 L 626.0 931.0 L 622.0 926.0 L 622.0 920.0 L 627.0 915.0 L 632.0 915.0 L 635.0 918.0 L 636.0 916.0 L 632.0 913.0 Z M 595.0 913.0 L 595.0 933.0 L 607.0 933.0 L 599.0 931.0 L 597.0 929.0 L 597.0 926.0 L 599.0 924.0 L 606.0 924.0 L 606.0 922.0 L 599.0 922.0 L 597.0 920.0 L 597.0 917.0 L 599.0 915.0 L 607.0 915.0 L 607.0 913.0 Z M 571.0 913.0 L 571.0 933.0 L 582.0 933.0 L 582.0 931.0 L 575.0 931.0 L 573.0 929.0 L 573.0 914.0 Z M 547.0 913.0 L 546.0 933.0 L 558.0 933.0 L 558.0 931.0 L 551.0 931.0 L 549.0 929.0 L 549.0 914.0 Z M 521.0 913.0 L 520.0 933.0 L 533.0 933.0 L 532.0 931.0 L 525.0 931.0 L 523.0 929.0 L 523.0 926.0 L 525.0 924.0 L 532.0 924.0 L 531.0 922.0 L 525.0 922.0 L 523.0 920.0 L 523.0 917.0 L 525.0 915.0 L 533.0 914.0 Z M 493.0 913.0 L 492.0 915.0 L 497.0 915.0 L 499.0 917.0 L 499.0 933.0 L 501.0 933.0 L 501.0 917.0 L 503.0 915.0 L 508.0 914.0 Z M 464.0 913.0 L 463.0 933.0 L 465.0 932.0 L 465.0 921.0 L 467.0 919.0 L 478.0 933.0 L 480.0 933.0 L 480.0 914.0 L 478.0 914.0 L 478.0 925.0 L 476.0 927.0 Z M 448.0 913.0 L 446.0 914.0 L 446.0 933.0 L 448.0 933.0 Z M 648.0 868.0 L 649.0 870.0 L 814.0 869.0 Z M 508.0 730.0 L 508.0 734.0 L 506.0 736.0 L 431.0 736.0 L 430.0 743.0 L 430.0 738.0 L 432.0 736.0 L 507.0 736.0 Z M 887.0 699.0 L 885.0 701.0 L 887.0 701.0 Z M 756.0 699.0 L 754.0 701.0 L 756.0 701.0 Z M 139.0 699.0 L 137.0 701.0 L 136.0 700.0 L 138.0 701.0 Z M 944.0 697.0 L 941.0 699.0 L 943.0 699.0 Z M 169.0 692.0 L 170.0 709.0 L 172.0 709.0 L 177.0 704.0 L 172.0 709.0 L 170.0 707.0 Z M 60.0 636.0 L 61.0 638.0 L 64.0 636.0 L 110.0 636.0 L 113.0 638.0 L 114.0 636.0 Z M 514.0 289.0 L 513.0 374.0 L 519.0 350.0 L 533.0 320.0 L 554.0 292.0 L 582.0 268.0 L 608.0 254.0 L 643.0 244.0 L 683.0 243.0 L 704.0 247.0 L 742.0 264.0 L 779.0 297.0 L 795.0 320.0 L 807.0 344.0 L 815.0 370.0 L 817.0 386.0 L 872.0 386.0 L 868.0 357.0 L 860.0 332.0 L 846.0 303.0 L 829.0 278.0 L 811.0 258.0 L 783.0 235.0 L 749.0 216.0 L 724.0 207.0 L 694.0 201.0 L 658.0 200.0 L 634.0 203.0 L 602.0 212.0 L 576.0 224.0 L 543.0 247.0 L 525.0 266.0 Z" fill="#391A60" fill-rule="evenodd"/>
<path d="M 719.0 932.0 L 720.0 934.0 L 723.0 934.0 Z M 679.0 933.0 L 687.0 934.0 L 684.0 932.0 L 685.0 931.0 L 683.0 931.0 L 684.0 932.0 L 682.0 934.0 Z M 520.0 931.0 L 520.0 934.0 L 533.0 934.0 L 522.0 934.0 Z M 368.0 931.0 L 372.0 934.0 L 380.0 933.0 L 378.0 934.0 L 376.0 932.0 L 377.0 931.0 L 375.0 931.0 L 376.0 932.0 L 372.0 934.0 Z M 261.0 933.0 L 259.0 934.0 L 257.0 932.0 L 258.0 931.0 L 256.0 931.0 L 257.0 932.0 L 255.0 934.0 L 250.0 932.0 L 253.0 934.0 Z M 191.0 930.0 L 190.0 929.0 L 191.0 931.0 L 187.0 934.0 L 185.0 934.0 L 183.0 932.0 L 184.0 931.0 L 182.0 931.0 L 183.0 932.0 L 180.0 934.0 L 187.0 934.0 Z M 481.0 926.0 L 481.0 932.0 L 478.0 934.0 L 475.0 931.0 L 478.0 934.0 L 480.0 934.0 Z M 208.0 930.0 L 218.0 930.0 L 214.0 927.0 L 216.0 925.0 L 210.0 925.0 L 212.0 927.0 Z M 716.0 924.0 L 714.0 926.0 L 710.0 925.0 L 711.0 927.0 L 708.0 931.0 L 710.0 929.0 L 718.0 930.0 L 715.0 927.0 Z M 138.0 924.0 L 137.0 926.0 L 141.0 932.0 L 139.0 934.0 L 136.0 931.0 L 138.0 934.0 L 141.0 934.0 L 142.0 933.0 L 137.0 926.0 Z M 71.0 930.0 L 80.0 929.0 L 83.0 934.0 L 86.0 934.0 L 86.0 932.0 L 84.0 934.0 L 78.0 927.0 L 79.0 924.0 L 76.0 926.0 L 77.0 927.0 L 75.0 929.0 Z M 607.0 922.0 L 605.0 925.0 L 600.0 925.0 L 606.0 925.0 Z M 467.0 920.0 L 464.0 922.0 L 463.0 921.0 L 463.0 923.0 L 464.0 922.0 L 466.0 924.0 L 466.0 932.0 L 463.0 934.0 L 466.0 934.0 L 466.0 924.0 L 468.0 922.0 L 470.0 924.0 Z M 714.0 919.0 L 713.0 918.0 L 712.0 920.0 Z M 214.0 919.0 L 213.0 918.0 L 212.0 920.0 Z M 648.0 916.0 L 652.0 916.0 L 654.0 918.0 L 654.0 933.0 L 657.0 934.0 L 658.0 927.0 L 658.0 932.0 L 656.0 934.0 L 654.0 932.0 L 654.0 917.0 Z M 492.0 916.0 L 496.0 916.0 L 498.0 918.0 L 498.0 933.0 L 501.0 934.0 L 502.0 918.0 L 504.0 916.0 L 507.0 916.0 L 502.0 916.0 L 502.0 932.0 L 500.0 934.0 L 498.0 932.0 L 498.0 916.0 Z M 411.0 916.0 L 405.0 916.0 L 405.0 932.0 L 402.0 934.0 L 401.0 933.0 L 405.0 933.0 L 405.0 918.0 L 407.0 916.0 Z M 344.0 916.0 L 344.0 922.0 L 346.0 922.0 L 344.0 920.0 L 346.0 916.0 L 349.0 916.0 L 351.0 918.0 L 349.0 922.0 L 351.0 921.0 L 351.0 917.0 Z M 234.0 916.0 L 234.0 920.0 L 233.0 919.0 L 235.0 917.0 L 236.0 918.0 Z M 130.0 916.0 L 130.0 922.0 L 135.0 922.0 L 132.0 922.0 L 130.0 920.0 L 132.0 916.0 L 135.0 916.0 Z M 635.0 914.0 L 637.0 916.0 L 636.0 918.0 L 637.0 916.0 Z M 594.0 914.0 L 594.0 933.0 L 607.0 934.0 L 608.0 931.0 L 603.0 931.0 L 604.0 932.0 L 602.0 934.0 L 596.0 934.0 L 594.0 932.0 Z M 1124.0 913.0 L 1124.0 934.0 L 1127.0 934.0 L 1127.0 928.0 L 1129.0 926.0 L 1137.0 934.0 L 1141.0 934.0 L 1133.0 923.0 L 1140.0 913.0 L 1137.0 913.0 L 1129.0 921.0 L 1127.0 919.0 L 1127.0 913.0 Z M 1097.0 913.0 L 1096.0 933.0 L 1100.0 933.0 L 1100.0 927.0 L 1102.0 925.0 L 1109.0 934.0 L 1112.0 934.0 L 1112.0 932.0 L 1107.0 926.0 L 1111.0 922.0 L 1111.0 916.0 L 1107.0 913.0 Z M 1102.0 916.0 L 1106.0 916.0 L 1108.0 918.0 L 1108.0 920.0 L 1105.0 923.0 L 1102.0 923.0 L 1100.0 921.0 L 1100.0 918.0 Z M 1070.0 913.0 L 1064.0 918.0 L 1064.0 929.0 L 1070.0 934.0 L 1078.0 934.0 L 1084.0 928.0 L 1085.0 921.0 L 1080.0 914.0 Z M 1073.0 915.0 L 1077.0 916.0 L 1081.0 921.0 L 1081.0 926.0 L 1076.0 931.0 L 1070.0 930.0 L 1067.0 926.0 L 1068.0 919.0 Z M 1025.0 913.0 L 1032.0 934.0 L 1035.0 933.0 L 1037.0 926.0 L 1039.0 924.0 L 1042.0 926.0 L 1044.0 934.0 L 1048.0 933.0 L 1054.0 913.0 L 1050.0 913.0 L 1048.0 922.0 L 1046.0 924.0 L 1043.0 920.0 L 1041.0 913.0 L 1038.0 913.0 L 1036.0 920.0 L 1033.0 923.0 L 1031.0 921.0 L 1029.0 914.0 Z M 999.0 913.0 L 1000.0 916.0 L 1004.0 916.0 L 1006.0 918.0 L 1006.0 934.0 L 1009.0 934.0 L 1009.0 920.0 L 1012.0 916.0 L 1015.0 916.0 L 1016.0 914.0 Z M 976.0 913.0 L 976.0 934.0 L 989.0 934.0 L 989.0 931.0 L 981.0 931.0 L 979.0 929.0 L 981.0 925.0 L 988.0 925.0 L 988.0 922.0 L 981.0 922.0 L 979.0 918.0 L 981.0 916.0 L 989.0 916.0 L 989.0 913.0 Z M 946.0 913.0 L 946.0 934.0 L 949.0 933.0 L 949.0 925.0 L 951.0 923.0 L 960.0 934.0 L 963.0 934.0 L 963.0 913.0 L 960.0 913.0 L 960.0 923.0 L 958.0 925.0 L 948.0 913.0 Z M 906.0 913.0 L 906.0 934.0 L 918.0 934.0 L 918.0 931.0 L 911.0 931.0 L 909.0 929.0 L 909.0 913.0 Z M 883.0 913.0 L 875.0 934.0 L 878.0 934.0 L 882.0 929.0 L 888.0 929.0 L 892.0 934.0 L 895.0 934.0 L 887.0 913.0 Z M 885.0 920.0 L 888.0 924.0 L 886.0 926.0 L 882.0 924.0 Z M 861.0 913.0 L 861.0 934.0 L 864.0 934.0 L 864.0 913.0 Z M 838.0 913.0 L 833.0 916.0 L 831.0 920.0 L 831.0 927.0 L 837.0 934.0 L 845.0 934.0 L 849.0 930.0 L 846.0 929.0 L 843.0 931.0 L 839.0 931.0 L 835.0 927.0 L 835.0 920.0 L 838.0 916.0 L 841.0 915.0 L 846.0 918.0 L 848.0 918.0 L 849.0 916.0 L 845.0 913.0 Z M 806.0 913.0 L 800.0 919.0 L 800.0 928.0 L 806.0 934.0 L 814.0 934.0 L 820.0 928.0 L 820.0 918.0 L 814.0 913.0 Z M 809.0 915.0 L 813.0 916.0 L 817.0 921.0 L 817.0 926.0 L 812.0 931.0 L 806.0 930.0 L 803.0 926.0 L 803.0 920.0 Z M 778.0 913.0 L 776.0 914.0 L 774.0 919.0 L 776.0 923.0 L 782.0 925.0 L 785.0 929.0 L 783.0 931.0 L 778.0 931.0 L 775.0 929.0 L 774.0 932.0 L 777.0 934.0 L 784.0 934.0 L 788.0 930.0 L 788.0 925.0 L 780.0 921.0 L 778.0 918.0 L 780.0 916.0 L 787.0 917.0 L 788.0 915.0 L 785.0 913.0 Z M 734.0 913.0 L 734.0 933.0 L 746.0 934.0 L 736.0 934.0 L 734.0 932.0 Z M 678.0 913.0 L 679.0 928.0 L 681.0 930.0 L 679.0 928.0 Z M 664.0 913.0 L 662.0 916.0 L 658.0 916.0 L 658.0 925.0 L 658.0 918.0 L 660.0 916.0 L 663.0 916.0 Z M 597.0 913.0 L 599.0 915.0 L 598.0 916.0 L 608.0 916.0 L 608.0 913.0 L 606.0 916.0 L 603.0 914.0 L 604.0 913.0 Z M 570.0 913.0 L 570.0 933.0 L 582.0 934.0 L 583.0 932.0 L 581.0 934.0 L 572.0 934.0 L 570.0 932.0 Z M 468.0 916.0 L 477.0 927.0 L 478.0 913.0 L 477.0 922.0 L 475.0 924.0 Z M 449.0 913.0 L 449.0 932.0 L 446.0 934.0 L 449.0 933.0 Z M 395.0 913.0 L 395.0 915.0 L 399.0 916.0 L 401.0 920.0 L 401.0 916.0 L 398.0 916.0 L 396.0 914.0 L 397.0 913.0 Z M 341.0 913.0 L 340.0 933.0 L 343.0 934.0 L 344.0 926.0 L 344.0 932.0 L 342.0 934.0 L 340.0 932.0 Z M 323.0 913.0 L 322.0 933.0 L 325.0 934.0 L 326.0 914.0 L 325.0 913.0 L 326.0 932.0 L 324.0 934.0 L 322.0 932.0 Z M 309.0 913.0 L 307.0 916.0 L 299.0 916.0 L 300.0 924.0 L 299.0 932.0 L 297.0 934.0 L 295.0 932.0 L 295.0 914.0 L 296.0 913.0 L 296.0 934.0 L 299.0 933.0 L 299.0 927.0 L 301.0 925.0 L 308.0 924.0 L 307.0 922.0 L 301.0 922.0 L 299.0 918.0 L 301.0 916.0 L 308.0 916.0 Z M 158.0 913.0 L 159.0 932.0 L 156.0 934.0 L 159.0 933.0 Z M 126.0 913.0 L 126.0 934.0 L 129.0 934.0 L 130.0 928.0 L 130.0 932.0 L 128.0 934.0 L 126.0 932.0 Z M 113.0 914.0 L 112.0 913.0 L 113.0 914.0 L 111.0 916.0 L 103.0 916.0 L 103.0 921.0 L 103.0 918.0 L 105.0 916.0 L 112.0 916.0 Z M 99.0 913.0 L 99.0 933.0 L 102.0 934.0 L 103.0 927.0 L 105.0 925.0 L 111.0 925.0 L 112.0 923.0 L 111.0 922.0 L 112.0 923.0 L 110.0 925.0 L 103.0 925.0 L 103.0 932.0 L 101.0 934.0 L 99.0 932.0 Z M 648.0 867.0 L 813.0 867.0 L 815.0 869.0 L 814.0 870.0 L 814.0 867.0 Z M 383.0 868.0 L 384.0 870.0 L 383.0 869.0 L 385.0 867.0 L 492.0 867.0 L 494.0 869.0 L 493.0 870.0 L 495.0 870.0 L 494.0 869.0 L 496.0 867.0 L 545.0 867.0 L 547.0 869.0 L 546.0 870.0 L 548.0 870.0 L 547.0 869.0 L 549.0 867.0 L 551.0 870.0 L 550.0 867.0 Z M 598.0 860.0 L 592.0 864.0 L 591.0 871.0 L 595.0 876.0 L 600.0 877.0 L 606.0 873.0 L 607.0 866.0 L 603.0 861.0 Z M 884.0 793.0 L 884.0 795.0 L 932.0 794.0 L 931.0 795.0 L 929.0 793.0 L 930.0 792.0 L 926.0 792.0 L 927.0 793.0 L 925.0 795.0 L 889.0 795.0 L 887.0 793.0 L 888.0 792.0 Z M 825.0 793.0 L 825.0 795.0 L 872.0 794.0 L 870.0 792.0 L 867.0 792.0 L 868.0 793.0 L 866.0 795.0 L 830.0 795.0 L 828.0 793.0 L 829.0 792.0 Z M 752.0 793.0 L 753.0 795.0 L 800.0 794.0 L 798.0 792.0 L 795.0 792.0 L 796.0 793.0 L 794.0 795.0 L 758.0 795.0 L 756.0 793.0 L 757.0 792.0 Z M 210.0 793.0 L 211.0 795.0 L 258.0 795.0 L 256.0 793.0 L 257.0 792.0 L 254.0 792.0 L 255.0 793.0 L 253.0 795.0 L 216.0 795.0 L 214.0 793.0 L 215.0 792.0 Z M 136.0 793.0 L 136.0 795.0 L 184.0 795.0 L 184.0 793.0 L 179.0 792.0 L 180.0 793.0 L 178.0 795.0 L 141.0 795.0 L 139.0 793.0 L 140.0 792.0 Z M 59.0 793.0 L 60.0 795.0 L 115.0 794.0 L 114.0 792.0 L 110.0 792.0 L 111.0 793.0 L 109.0 795.0 L 65.0 795.0 L 63.0 793.0 L 64.0 792.0 Z M 1023.0 789.0 L 1023.0 795.0 L 1027.0 796.0 L 1023.0 794.0 Z M 1052.0 786.0 L 1055.0 788.0 L 1056.0 787.0 Z M 391.0 789.0 L 395.0 788.0 L 395.0 786.0 L 392.0 786.0 L 393.0 787.0 Z M 1071.0 761.0 L 1069.0 762.0 L 1069.0 773.0 L 1069.0 764.0 L 1071.0 762.0 L 1072.0 763.0 Z M 663.0 727.0 L 663.0 731.0 L 718.0 731.0 L 665.0 731.0 Z M 486.0 723.0 L 486.0 729.0 L 484.0 731.0 L 431.0 731.0 L 485.0 731.0 Z M 886.0 699.0 L 884.0 699.0 L 884.0 701.0 Z M 754.0 699.0 L 752.0 700.0 L 753.0 701.0 Z M 138.0 699.0 L 136.0 699.0 L 136.0 701.0 Z M 605.0 699.0 L 614.0 707.0 L 607.0 700.0 L 609.0 698.0 L 625.0 698.0 Z M 1010.0 697.0 L 1011.0 699.0 L 1013.0 699.0 Z M 914.0 692.0 L 918.0 694.0 L 918.0 780.0 L 918.0 692.0 Z M 783.0 692.0 L 786.0 694.0 L 787.0 709.0 L 788.0 708.0 L 786.0 706.0 L 786.0 692.0 Z M 904.0 641.0 L 896.0 647.0 L 893.0 654.0 L 893.0 658.0 L 897.0 666.0 L 901.0 669.0 L 913.0 670.0 L 917.0 668.0 L 922.0 661.0 L 922.0 651.0 L 916.0 643.0 L 912.0 641.0 Z M 357.0 639.0 L 358.0 640.0 L 361.0 638.0 Z M 365.0 594.0 L 366.0 596.0 L 554.0 595.0 L 552.0 593.0 L 550.0 593.0 L 551.0 594.0 L 549.0 596.0 L 371.0 596.0 L 369.0 594.0 L 370.0 593.0 L 368.0 593.0 L 369.0 594.0 L 367.0 596.0 Z M 677.0 560.0 L 681.0 559.0 L 682.0 557.0 L 677.0 557.0 Z M 874.0 409.0 L 684.0 408.0 L 684.0 428.0 L 781.0 428.0 L 785.0 430.0 L 790.0 437.0 L 790.0 453.0 L 781.0 485.0 L 770.0 508.0 L 754.0 531.0 L 739.0 547.0 L 717.0 564.0 L 699.0 574.0 L 670.0 584.0 L 648.0 588.0 L 614.0 589.0 L 652.0 596.0 L 679.0 597.0 L 707.0 595.0 L 729.0 591.0 L 754.0 583.0 L 790.0 564.0 L 808.0 550.0 L 826.0 532.0 L 851.0 496.0 L 868.0 452.0 Z M 513.0 399.0 L 512.0 499.0 L 512.0 410.0 L 514.0 408.0 L 515.0 409.0 L 514.0 402.0 L 512.0 400.0 Z M 816.0 382.0 L 817.0 387.0 L 870.0 387.0 L 818.0 387.0 L 816.0 385.0 Z M 512.0 295.0 L 513.0 375.0 L 515.0 366.0 L 514.0 367.0 L 512.0 365.0 Z M 519.0 183.0 L 551.0 183.0 L 553.0 185.0 L 552.0 186.0 L 554.0 185.0 L 553.0 183.0 Z M 452.0 59.0 L 436.0 66.0 L 424.0 78.0 L 418.0 91.0 L 417.0 110.0 L 423.0 126.0 L 434.0 138.0 L 445.0 144.0 L 452.0 146.0 L 469.0 146.0 L 484.0 140.0 L 495.0 130.0 L 503.0 114.0 L 504.0 96.0 L 499.0 81.0 L 494.0 74.0 L 485.0 66.0 L 469.0 59.0 Z" fill="#CE932B" fill-rule="evenodd"/>
</svg>