<svg xmlns="http://www.w3.org/2000/svg" viewBox="0 0 1074 830" width="1074" height="830" role="img" aria-label="Indegenius logo">
<title>Indegenius logo</title>
<path d="M 830.0 643.0 L 837.0 645.0 L 842.0 653.0 L 842.0 704.0 L 844.0 712.0 L 850.0 721.0 L 858.0 726.0 L 874.0 728.0 L 890.0 722.0 L 901.0 712.0 L 903.0 714.0 L 903.0 727.0 L 930.0 720.0 L 925.0 719.0 L 921.0 715.0 L 919.0 706.0 L 919.0 639.0 L 891.0 643.0 L 899.0 645.0 L 903.0 652.0 L 903.0 707.0 L 896.0 714.0 L 883.0 719.0 L 875.0 719.0 L 869.0 717.0 L 862.0 711.0 L 859.0 704.0 L 859.0 639.0 Z M 808.0 639.0 L 780.0 645.0 L 786.0 646.0 L 792.0 653.0 L 792.0 716.0 L 788.0 723.0 L 780.0 726.0 L 821.0 726.0 L 814.0 724.0 L 810.0 720.0 L 808.0 712.0 Z M 1003.0 641.0 L 986.0 637.0 L 976.0 637.0 L 963.0 640.0 L 952.0 649.0 L 949.0 656.0 L 949.0 667.0 L 952.0 674.0 L 956.0 679.0 L 962.0 683.0 L 990.0 695.0 L 997.0 703.0 L 998.0 713.0 L 995.0 719.0 L 985.0 726.0 L 973.0 726.0 L 964.0 722.0 L 955.0 713.0 L 948.0 699.0 L 949.0 722.0 L 965.0 727.0 L 980.0 728.0 L 994.0 725.0 L 1002.0 721.0 L 1009.0 712.0 L 1011.0 704.0 L 1010.0 694.0 L 1006.0 686.0 L 998.0 679.0 L 973.0 669.0 L 967.0 665.0 L 962.0 658.0 L 962.0 649.0 L 969.0 641.0 L 980.0 638.0 L 992.0 642.0 L 1000.0 650.0 L 1006.0 662.0 L 1006.0 643.0 Z M 751.0 647.0 L 746.0 642.0 L 731.0 637.0 L 723.0 637.0 L 712.0 640.0 L 701.0 647.0 L 695.0 653.0 L 693.0 651.0 L 693.0 639.0 L 665.0 645.0 L 671.0 646.0 L 676.0 651.0 L 677.0 655.0 L 677.0 715.0 L 675.0 720.0 L 671.0 724.0 L 665.0 726.0 L 705.0 726.0 L 700.0 725.0 L 695.0 720.0 L 693.0 714.0 L 693.0 658.0 L 701.0 650.0 L 712.0 645.0 L 724.0 645.0 L 731.0 648.0 L 735.0 652.0 L 739.0 661.0 L 739.0 718.0 L 734.0 724.0 L 728.0 726.0 L 767.0 726.0 L 761.0 724.0 L 756.0 716.0 L 756.0 659.0 Z M 607.0 637.0 L 594.0 640.0 L 578.0 651.0 L 569.0 666.0 L 566.0 679.0 L 566.0 687.0 L 569.0 701.0 L 573.0 709.0 L 580.0 717.0 L 596.0 726.0 L 614.0 728.0 L 625.0 726.0 L 634.0 722.0 L 645.0 712.0 L 650.0 702.0 L 644.0 709.0 L 631.0 716.0 L 609.0 716.0 L 599.0 711.0 L 590.0 702.0 L 585.0 692.0 L 583.0 677.0 L 585.0 675.0 L 650.0 675.0 L 650.0 667.0 L 646.0 655.0 L 641.0 648.0 L 635.0 643.0 L 622.0 638.0 Z M 583.0 669.0 L 587.0 655.0 L 590.0 650.0 L 597.0 643.0 L 605.0 639.0 L 615.0 639.0 L 624.0 644.0 L 629.0 650.0 L 633.0 662.0 L 633.0 671.0 L 631.0 673.0 L 585.0 673.0 Z M 408.0 637.0 L 394.0 640.0 L 382.0 647.0 L 376.0 653.0 L 368.0 668.0 L 366.0 678.0 L 366.0 690.0 L 373.0 709.0 L 380.0 717.0 L 394.0 725.0 L 413.0 728.0 L 425.0 726.0 L 438.0 719.0 L 445.0 712.0 L 450.0 702.0 L 444.0 709.0 L 431.0 716.0 L 414.0 717.0 L 404.0 714.0 L 390.0 702.0 L 385.0 692.0 L 383.0 677.0 L 385.0 675.0 L 450.0 675.0 L 450.0 667.0 L 446.0 655.0 L 441.0 648.0 L 436.0 644.0 L 426.0 639.0 Z M 383.0 670.0 L 385.0 660.0 L 389.0 651.0 L 394.0 645.0 L 404.0 639.0 L 415.0 639.0 L 420.0 641.0 L 428.0 649.0 L 433.0 663.0 L 433.0 671.0 L 431.0 673.0 L 385.0 673.0 Z M 219.0 648.0 L 213.0 642.0 L 198.0 637.0 L 190.0 637.0 L 179.0 640.0 L 170.0 645.0 L 161.0 654.0 L 159.0 652.0 L 159.0 639.0 L 131.0 645.0 L 138.0 647.0 L 143.0 654.0 L 143.0 715.0 L 141.0 720.0 L 137.0 724.0 L 131.0 726.0 L 172.0 726.0 L 165.0 724.0 L 160.0 718.0 L 159.0 664.0 L 160.0 658.0 L 169.0 649.0 L 179.0 645.0 L 191.0 645.0 L 199.0 649.0 L 203.0 654.0 L 207.0 665.0 L 207.0 714.0 L 205.0 720.0 L 201.0 724.0 L 195.0 726.0 L 235.0 726.0 L 229.0 724.0 L 225.0 720.0 L 223.0 714.0 L 223.0 658.0 Z M 550.0 631.0 L 529.0 640.0 L 513.0 637.0 L 493.0 639.0 L 483.0 644.0 L 474.0 653.0 L 471.0 661.0 L 471.0 675.0 L 474.0 682.0 L 487.0 693.0 L 480.0 697.0 L 473.0 704.0 L 471.0 709.0 L 471.0 716.0 L 473.0 720.0 L 484.0 727.0 L 473.0 733.0 L 466.0 741.0 L 466.0 753.0 L 473.0 761.0 L 479.0 764.0 L 492.0 767.0 L 514.0 767.0 L 536.0 761.0 L 544.0 756.0 L 551.0 749.0 L 555.0 740.0 L 555.0 730.0 L 550.0 720.0 L 546.0 717.0 L 533.0 713.0 L 490.0 713.0 L 485.0 711.0 L 481.0 706.0 L 482.0 700.0 L 490.0 694.0 L 504.0 697.0 L 518.0 696.0 L 531.0 691.0 L 540.0 683.0 L 545.0 672.0 L 545.0 662.0 L 541.0 652.0 L 533.0 644.0 L 535.0 642.0 L 550.0 642.0 Z M 478.0 740.0 L 482.0 732.0 L 488.0 727.0 L 523.0 727.0 L 538.0 731.0 L 544.0 738.0 L 544.0 747.0 L 535.0 758.0 L 528.0 762.0 L 517.0 765.0 L 501.0 765.0 L 488.0 760.0 L 482.0 755.0 L 478.0 748.0 Z M 507.0 638.0 L 517.0 641.0 L 523.0 647.0 L 526.0 652.0 L 529.0 664.0 L 529.0 672.0 L 525.0 685.0 L 517.0 693.0 L 512.0 695.0 L 505.0 695.0 L 498.0 692.0 L 490.0 683.0 L 487.0 674.0 L 487.0 658.0 L 490.0 650.0 L 498.0 641.0 Z M 62.0 592.0 L 69.0 594.0 L 75.0 600.0 L 77.0 606.0 L 77.0 712.0 L 75.0 718.0 L 69.0 724.0 L 62.0 726.0 L 109.0 726.0 L 102.0 724.0 L 96.0 718.0 L 94.0 706.0 L 95.0 604.0 L 97.0 599.0 L 101.0 595.0 L 109.0 592.0 Z M 340.0 590.0 L 320.0 593.0 L 324.0 601.0 L 324.0 641.0 L 322.0 643.0 L 302.0 637.0 L 286.0 638.0 L 268.0 646.0 L 255.0 661.0 L 250.0 676.0 L 250.0 694.0 L 256.0 710.0 L 268.0 722.0 L 280.0 727.0 L 299.0 727.0 L 312.0 721.0 L 322.0 712.0 L 324.0 714.0 L 324.0 727.0 L 351.0 720.0 L 345.0 719.0 L 340.0 712.0 Z M 292.0 639.0 L 303.0 639.0 L 313.0 643.0 L 321.0 651.0 L 324.0 658.0 L 324.0 706.0 L 315.0 715.0 L 304.0 719.0 L 290.0 718.0 L 281.0 713.0 L 271.0 701.0 L 267.0 689.0 L 266.0 675.0 L 271.0 656.0 L 280.0 645.0 Z M 464.0 370.0 L 465.0 460.0 L 468.0 469.0 L 475.0 481.0 L 494.0 502.0 L 509.0 513.0 L 517.0 517.0 L 535.0 520.0 L 583.0 519.0 L 615.0 511.0 L 595.0 507.0 L 567.0 495.0 L 538.0 477.0 L 516.0 460.0 L 496.0 439.0 L 481.0 417.0 L 470.0 394.0 Z M 500.0 174.0 L 329.0 175.0 L 351.0 181.0 L 367.0 195.0 L 374.0 210.0 L 376.0 223.0 L 375.0 499.0 L 370.0 517.0 L 359.0 532.0 L 346.0 540.0 L 329.0 544.0 L 500.0 545.0 L 474.0 535.0 L 459.0 523.0 L 449.0 507.0 L 444.0 484.0 L 444.0 244.0 L 446.0 227.0 L 453.0 207.0 L 468.0 189.0 L 482.0 180.0 Z" fill="#073929" fill-rule="evenodd"/>
<path d="M 702.0 726.0 L 701.0 724.0 L 698.0 726.0 L 691.0 726.0 Z M 167.0 724.0 L 165.0 726.0 L 167.0 726.0 Z M 814.0 723.0 L 814.0 726.0 L 817.0 726.0 Z M 232.0 726.0 L 229.0 723.0 L 230.0 724.0 L 226.0 726.0 Z M 106.0 725.0 L 102.0 723.0 L 103.0 724.0 L 101.0 726.0 L 97.0 726.0 Z M 759.0 721.0 L 762.0 724.0 L 759.0 726.0 L 765.0 726.0 Z M 931.0 720.0 L 929.0 719.0 L 928.0 721.0 L 930.0 719.0 Z M 349.0 719.0 L 349.0 721.0 L 351.0 719.0 L 352.0 720.0 Z M 451.0 672.0 L 449.0 676.0 L 385.0 676.0 L 450.0 676.0 Z M 651.0 670.0 L 651.0 674.0 L 649.0 676.0 L 585.0 676.0 L 650.0 676.0 Z M 384.0 670.0 L 385.0 672.0 L 429.0 672.0 L 386.0 672.0 Z M 584.0 669.0 L 585.0 672.0 L 611.0 672.0 L 586.0 672.0 Z M 167.0 647.0 L 161.0 653.0 L 160.0 652.0 L 161.0 653.0 Z M 1006.0 644.0 L 1006.0 658.0 L 1004.0 660.0 L 1006.0 661.0 Z M 498.0 543.0 L 495.0 545.0 L 498.0 545.0 Z M 329.0 545.0 L 345.0 545.0 L 336.0 545.0 L 334.0 543.0 Z M 613.0 510.0 L 613.0 512.0 L 615.0 510.0 L 616.0 511.0 Z M 466.0 267.0 L 464.0 276.0 L 464.0 345.0 L 469.0 325.0 L 482.0 297.0 L 497.0 276.0 L 527.0 249.0 L 555.0 235.0 L 581.0 228.0 L 617.0 227.0 L 634.0 230.0 L 659.0 239.0 L 673.0 247.0 L 703.0 273.0 L 727.0 310.0 L 734.0 328.0 L 739.0 356.0 L 789.0 356.0 L 785.0 330.0 L 776.0 303.0 L 764.0 279.0 L 748.0 256.0 L 728.0 235.0 L 701.0 215.0 L 683.0 205.0 L 656.0 195.0 L 633.0 190.0 L 606.0 188.0 L 579.0 190.0 L 540.0 201.0 L 516.0 213.0 L 491.0 231.0 L 476.0 247.0 Z M 329.0 174.0 L 332.0 176.0 L 334.0 174.0 L 497.0 174.0 Z" fill="#391A60" fill-rule="evenodd"/>
<path d="M 779.0 725.0 L 780.0 727.0 L 813.0 727.0 L 781.0 727.0 Z M 664.0 725.0 L 665.0 727.0 L 675.0 727.0 L 666.0 727.0 Z M 727.0 725.0 L 729.0 727.0 L 745.0 727.0 L 732.0 727.0 L 730.0 725.0 L 731.0 724.0 Z M 477.0 724.0 L 481.0 727.0 L 479.0 729.0 L 483.0 727.0 Z M 195.0 727.0 L 210.0 727.0 L 199.0 727.0 L 197.0 725.0 L 198.0 724.0 L 196.0 724.0 L 197.0 725.0 Z M 61.0 725.0 L 64.0 727.0 L 63.0 726.0 L 65.0 724.0 Z M 947.0 718.0 L 947.0 722.0 L 952.0 724.0 L 947.0 721.0 Z M 902.0 713.0 L 894.0 720.0 L 900.0 714.0 L 902.0 716.0 Z M 322.0 713.0 L 321.0 714.0 L 323.0 716.0 L 323.0 728.0 L 325.0 728.0 L 323.0 726.0 Z M 996.0 704.0 L 997.0 712.0 L 994.0 718.0 L 997.0 712.0 Z M 648.0 703.0 L 649.0 702.0 L 651.0 704.0 L 651.0 702.0 Z M 451.0 702.0 L 449.0 702.0 L 446.0 705.0 L 449.0 702.0 L 451.0 704.0 L 449.0 707.0 Z M 949.0 698.0 L 947.0 699.0 L 947.0 709.0 L 947.0 702.0 L 949.0 700.0 L 950.0 701.0 Z M 965.0 647.0 L 963.0 650.0 L 963.0 657.0 L 963.0 650.0 Z M 779.0 644.0 L 780.0 646.0 L 782.0 646.0 Z M 665.0 644.0 L 665.0 646.0 L 667.0 646.0 Z M 533.0 643.0 L 535.0 645.0 L 537.0 643.0 L 550.0 643.0 Z M 135.0 643.0 L 130.0 645.0 L 132.0 646.0 L 131.0 645.0 Z M 898.0 641.0 L 891.0 642.0 L 891.0 644.0 L 893.0 644.0 L 892.0 643.0 L 894.0 641.0 Z M 795.0 595.0 L 788.0 602.0 L 788.0 613.0 L 792.0 618.0 L 796.0 620.0 L 804.0 620.0 L 808.0 618.0 L 812.0 613.0 L 812.0 602.0 L 805.0 595.0 Z M 61.0 593.0 L 63.0 591.0 L 108.0 591.0 L 110.0 593.0 L 109.0 591.0 L 62.0 591.0 Z M 337.0 589.0 L 341.0 591.0 L 341.0 711.0 L 341.0 590.0 Z M 328.0 545.0 L 332.0 543.0 L 329.0 543.0 Z M 790.0 377.0 L 619.0 376.0 L 619.0 394.0 L 708.0 395.0 L 715.0 405.0 L 713.0 424.0 L 708.0 441.0 L 696.0 466.0 L 682.0 486.0 L 662.0 506.0 L 647.0 517.0 L 628.0 527.0 L 603.0 535.0 L 581.0 538.0 L 555.0 538.0 L 570.0 543.0 L 591.0 546.0 L 612.0 547.0 L 646.0 544.0 L 684.0 533.0 L 718.0 514.0 L 749.0 485.0 L 767.0 460.0 L 776.0 442.0 L 784.0 419.0 L 788.0 401.0 Z M 464.0 368.0 L 463.0 453.0 L 463.0 377.0 L 465.0 375.0 L 466.0 376.0 L 466.0 374.0 L 465.0 375.0 L 463.0 373.0 L 465.0 370.0 Z M 738.0 352.0 L 739.0 357.0 L 789.0 357.0 L 740.0 357.0 L 738.0 355.0 Z M 463.0 278.0 L 463.0 345.0 L 465.0 345.0 L 463.0 341.0 Z M 412.0 61.0 L 395.0 68.0 L 386.0 77.0 L 380.0 88.0 L 378.0 105.0 L 380.0 114.0 L 385.0 124.0 L 390.0 130.0 L 402.0 138.0 L 408.0 140.0 L 421.0 141.0 L 435.0 137.0 L 445.0 130.0 L 450.0 124.0 L 457.0 108.0 L 457.0 95.0 L 452.0 81.0 L 446.0 73.0 L 440.0 68.0 L 427.0 62.0 Z" fill="#CE932B" fill-rule="evenodd"/>
</svg>